<?xml version="1.0" encoding="utf-8"?>
<svg version="1.1" xmlns:xlink="http://www.w3.org/1999/xlink" width="318px" height="205px" xmlns="http://www.w3.org/2000/svg">
  <g transform="matrix(1 0 0 1 -133 -251 )">
    <path d="M 133 251  L 451 251  L 451 456  L 133 456  L 133 251  " fill-rule="nonzero" fill="#cccccc" stroke="none" />
    <path d="M 147 265  L 437 265  L 437 442  L 147 442  L 147 265  " fill-rule="nonzero" fill="#ffffff" stroke="none" />
    <path d="M 313.735 312.5  C 305.125 312.5  298.36 305.735  298.36 297.125  C 298.36 288.515  305.125 281.75  313.735 281.75  C 322.345 281.75  329.11 288.515  329.11 297.125  C 329.11 305.735  322.345 312.5  313.735 312.5  " fill-rule="nonzero" fill="#cccccc" stroke="none" />
    <path d="M 152 437  L 152 345.15  L 222 303.4  L 320 372.40566037735846  L 376 328.45  L 432 372.40566037735846  L 432 437  L 152 437  " fill-rule="nonzero" fill="#169bd5" stroke="none" />
  </g>
</svg>