<?xml version="1.0" encoding="utf-8"?>
<svg version="1.1" xmlns:xlink="http://www.w3.org/1999/xlink" width="323px" height="307px" xmlns="http://www.w3.org/2000/svg">
  <g transform="matrix(1 0 0 1 -141 -311 )">
    <path d="M 141 311  L 464 311  L 464 618  L 141 618  L 141 311  " fill-rule="nonzero" fill="#cccccc" stroke="none" />
    <path d="M 162 332  L 443 332  L 443 597  L 162 597  L 162 332  " fill-rule="nonzero" fill="#ffffff" stroke="none" />
    <path d="M 331.985 403.1  C 319.091 403.1  308.96000000000004 392.96900000000005  308.96000000000004 380.07500000000005  C 308.96000000000004 367.18100000000004  319.091 357.05  331.985 357.05  C 344.879 357.05  355.01000000000005 367.18100000000004  355.01000000000005 380.07500000000005  C 355.01000000000005 392.96900000000005  344.879 403.1  331.985 403.1  " fill-rule="nonzero" fill="#cccccc" stroke="none" />
    <path d="M 170 590  L 170 452.5  L 236.5 390  L 329.6 447.43034055727554  L 382.8 427.5  L 436 447.43034055727554  L 436 590  L 170 590  " fill-rule="nonzero" fill="#169bd5" stroke="none" />
  </g>
</svg>