<?xml version="1.0" encoding="utf-8"?>
<svg version="1.1" xmlns:xlink="http://www.w3.org/1999/xlink" width="509px" height="549px" xmlns="http://www.w3.org/2000/svg">
  <g transform="matrix(1 0 0 1 -228 -322 )">
    <path d="M 228 322  L 737 322  L 737 871  L 228 871  L 228 322  " fill-rule="nonzero" fill="#cccccc" stroke="none" />
    <path d="M 264 358  L 701 358  L 701 835  L 264 835  L 264 358  " fill-rule="nonzero" fill="#ffffff" stroke="none" />
    <path d="M 530.855 480.70000000000005  C 509.47700000000003 480.70000000000005  492.68 463.903  492.68 442.52500000000003  C 492.68 421.14700000000005  509.47700000000003 404.35  530.855 404.35  C 552.233 404.35  569.03 421.14700000000005  569.03 442.52500000000003  C 569.03 463.903  552.233 480.70000000000005  530.855 480.70000000000005  " fill-rule="nonzero" fill="#cccccc" stroke="none" />
    <path d="M 277 823  L 277 574.4  L 380 461.4  L 524.2 551.8  L 606.6 529.2  L 689 551.8  L 689 823  L 277 823  " fill-rule="nonzero" fill="#169bd5" stroke="none" />
  </g>
</svg>