<?xml version="1.0" encoding="utf-8"?>
<svg version="1.1" xmlns:xlink="http://www.w3.org/1999/xlink" width="516px" height="371px" xmlns="http://www.w3.org/2000/svg">
  <g transform="matrix(1 0 0 1 -345 -370 )">
    <path d="M 345 370  L 861 370  L 861 741  L 345 741  L 345 370  " fill-rule="nonzero" fill="#cccccc" stroke="none" />
    <path d="M 371 396  L 835 396  L 835 715  L 371 715  L 371 396  " fill-rule="nonzero" fill="#ffffff" stroke="none" />
    <path d="M 641.145 481.29999999999995  C 625.563 481.29999999999995  613.3199999999999 469.05699999999996  613.3199999999999 453.47499999999997  C 613.3199999999999 437.893  625.563 425.65  641.145 425.65  C 656.727 425.65  668.9699999999999 437.893  668.9699999999999 453.47499999999997  C 668.9699999999999 469.05699999999996  656.727 481.29999999999995  641.145 481.29999999999995  " fill-rule="nonzero" fill="#cccccc" stroke="none" />
    <path d="M 381 706  L 381 541  L 492.25 466  L 648 576.5813953488372  L 737 511  L 826 576.5813953488372  L 826 706  L 381 706  " fill-rule="nonzero" fill="#169bd5" stroke="none" />
  </g>
</svg>